<svg width="128" height="128" viewBox="-6 -4 32 32" fill="#000000" xmlns="http://www.w3.org/2000/svg">
<path d="M4.3685 23.0001H16.6315C19.0342 23.0001 21 21.0783 21 18.7295V6.55842C21 4.20961 19.0342 2.28786 16.6315 2.28786H15.8202V0.610141C15.8202 0.274597 15.5394 6.10352e-05 15.1961 6.10352e-05C14.8529 6.10352e-05 14.5721 0.274597 14.5721 0.610141V2.28786H6.42794V0.610141C6.42794 0.274597 6.1471 6.10352e-05 5.80386 6.10352e-05C5.46062 6.10352e-05 5.17979 0.274597 5.17979 0.610141V2.28786H4.3685C1.96582 2.28786 0 4.20961 0 6.55842V18.699C0 21.0783 1.96582 23.0001 4.3685 23.0001ZM4.3685 3.50802H5.17979V5.79582C5.17979 6.13136 5.46062 6.4059 5.80386 6.4059C6.1471 6.4059 6.42794 6.13136 6.42794 5.79582V3.50802H14.6033V5.79582C14.6033 6.13136 14.8841 6.4059 15.2273 6.4059C15.5706 6.4059 15.8514 6.13136 15.8514 5.79582V3.50802H16.6627C18.3789 3.50802 19.7831 4.8807 19.7831 6.55842V9.02924H1.24814V6.55842C1.24814 4.8807 2.6523 3.50802 4.3685 3.50802ZM1.24814 10.2494H19.7519V18.699C19.7519 20.3767 18.3477 21.7494 16.6315 21.7494H4.3685C2.6523 21.7494 1.24814 20.3767 1.24814 18.699V10.2494Z" />
</svg>
