<svg width="128" height="128" viewBox="-4 0 100 80" fill="#000000" xmlns="http://www.w3.org/2000/svg">
<path d="M84.6291 71.8798H89.4796C90.4497 71.8798 92.6055 71.557 92.9289 70.0508C93.1445 69.2976 92.8211 68.7597 92.6055 68.4369C92.4977 68.1141 92.39 68.0065 92.4977 67.4685C92.9289 65.9623 93.3601 59.0764 91.3121 57.6777C90.0186 56.8169 86.2459 54.2347 69.3229 53.0512C55.3102 45.6273 52.7232 44.7666 48.6272 44.3362C44.2078 43.7983 38.0637 43.9059 32.2431 44.659C27.2847 45.197 17.6914 48.7475 13.0564 50.3614C11.8707 50.7918 10.7928 51.2221 10.5772 51.2221C9.82272 51.4373 5.83449 51.7601 3.4631 51.9753C3.13973 51.9753 2.70857 52.0829 2.27741 52.4056C1.63067 52.9436 1.3073 54.0195 1.3073 55.6334C-1.06408 64.3484 0.229401 69.2976 1.73846 70.4811C2.06184 70.8039 2.493 71.1267 9.82272 71.5571C10.3617 71.5571 10.9006 71.1267 11.0084 70.5887C11.0084 69.9432 10.5772 69.5128 10.0383 69.4052C4.97216 69.0824 3.57089 68.8672 3.13973 68.7597C2.49299 68.0065 1.52288 63.7028 3.57089 56.0638V55.741C3.57089 54.7727 3.57089 54.3423 3.67868 54.1271C4.64879 54.0195 9.93051 53.6967 11.1162 53.374C11.4396 53.2664 12.1941 53.0512 13.811 52.4056C18.3381 50.7918 27.8237 47.3488 32.5664 46.8108C38.1715 46.1653 44.2078 46.0577 48.4116 46.4881C52.1842 46.9184 54.6634 47.7792 68.5683 55.0954C68.6761 55.203 68.8917 55.203 68.9995 55.203C79.8863 55.9562 87.0004 57.3549 90.1264 59.5067C90.8809 60.1523 90.9887 65.2091 90.5575 66.9306C90.1264 68.2217 90.4497 68.9748 90.7731 69.5128C90.4497 69.6204 89.9108 69.728 89.4796 69.728H84.7369C84.0901 69.728 83.659 70.1584 83.659 70.8039C83.659 71.4495 84.0901 71.8798 84.6291 71.8798Z" />
<path d="M28.9017 71.9874H65.7659C66.4126 71.9874 66.8438 71.5571 66.8438 70.9115C66.8438 70.266 66.4126 69.8356 65.7659 69.8356H28.9017C28.2549 69.8356 27.8238 70.266 27.8238 70.9115C27.8238 71.4495 28.3627 71.9874 28.9017 71.9874ZM75.467 75C79.7786 75 83.3357 71.4495 83.3357 67.1458C83.3357 62.8421 79.7786 59.2916 75.467 59.2916C71.1554 59.2916 67.5983 62.8421 67.5983 67.1458C67.5983 71.4495 71.1554 75 75.467 75ZM75.467 61.4434C78.5929 61.4434 81.1799 64.0256 81.1799 67.1458C81.1799 70.266 78.5929 72.8482 75.467 72.8482C72.3411 72.8482 69.7541 70.266 69.7541 67.1458C69.7541 63.918 72.3411 61.4434 75.467 61.4434ZM19.4162 75C23.7278 75 27.2848 71.4495 27.2848 67.1458C27.2848 62.8421 23.7278 59.2916 19.4162 59.2916C15.1045 59.2916 11.5475 62.8421 11.5475 67.1458C11.5475 71.4495 15.1045 75 19.4162 75ZM19.4162 61.4434C22.5421 61.4434 25.129 64.0256 25.129 67.1458C25.129 70.266 22.5421 72.8482 19.4162 72.8482C16.2902 72.8482 13.7033 70.266 13.7033 67.1458C13.7033 63.918 16.2902 61.4434 19.4162 61.4434ZM4.6489 60.9054C4.86448 60.9054 5.08006 60.7978 5.29564 60.6903C6.8047 59.5067 7.66703 58.9688 8.20598 58.7536C9.0683 58.3232 9.60725 57.8929 9.60725 56.7093C9.60725 56.1714 9.39166 55.741 9.0683 55.4182C8.09818 54.5575 6.26575 54.5575 5.72681 54.5575C5.08006 54.5575 4.6489 55.0955 4.6489 55.6334C4.6489 56.279 5.18785 56.7093 5.72681 56.7093C6.26575 56.7093 6.80471 56.7093 7.12807 56.8169C6.58913 57.1397 5.51122 57.6777 3.89438 58.9688C3.46321 59.2916 3.35542 60.0447 3.78658 60.4751C4.00217 60.7978 4.32553 60.9054 4.6489 60.9054ZM63.3945 55.8486C63.9335 55.8486 64.4724 55.4182 64.4724 54.7727C64.4724 54.1271 64.0413 53.6968 63.3945 53.6968C63.0711 53.6968 35.3691 52.9436 33.1055 52.836C32.6743 52.836 32.0276 52.7284 31.2731 52.7284C29.1173 52.6208 23.4044 52.2981 22.5421 51.6525C22.1109 51.2221 21.4642 51.2221 21.033 51.6525C20.6018 52.0829 20.6018 52.7284 21.033 53.1588C22.0031 54.1271 25.129 54.4499 31.1653 54.7727C31.9198 54.7727 32.5665 54.8803 32.9977 54.8803C35.3691 55.2031 62.2088 55.8486 63.3945 55.8486ZM43.5611 60.3675H47.3338C47.9805 60.3675 48.4117 59.9371 48.4117 59.2916C48.4117 58.646 47.9805 58.2156 47.3338 58.2156H43.5611C42.9144 58.2156 42.4832 58.646 42.4832 59.2916C42.4832 59.9371 42.9144 60.3675 43.5611 60.3675ZM89.0486 63.5952C89.5875 63.5952 90.1265 63.1649 90.1265 62.6269C90.1265 61.9814 89.6953 61.551 89.1564 61.4434C88.4018 61.3358 87.6473 61.2282 87.0006 61.1206C87.4317 60.7978 87.5395 60.2599 87.3239 59.8295C87.0006 59.2916 86.3538 59.0764 85.9227 59.3991C85.4915 59.6143 84.0902 60.3675 84.3058 61.6586C84.3058 61.9814 84.5214 63.2725 89.0486 63.5952C88.9408 63.5952 88.9408 63.5952 89.0486 63.5952Z" />
<g clip-path="url(#clip0)">
<path d="M66.5176 13.9135C60.6122 7.5775 52.6155 4.08797 43.9997 4.08788C35.3846 4.08797 27.3879 7.5775 21.4823 13.9135C20.8058 14.6395 20.8458 15.7765 21.5717 16.4531C22.2978 17.1297 23.4347 17.0898 24.1113 16.3638C29.3295 10.7651 36.3926 7.68172 44.0003 7.68163C51.6073 7.68172 58.6705 10.7651 63.8886 16.3638C64.2425 16.7434 64.7223 16.9355 65.2035 16.9355C65.6422 16.9355 66.0819 16.7758 66.4282 16.4531C67.1541 15.7764 67.1942 14.6395 66.5176 13.9135Z" />
<path d="M59.9194 21.3341C55.5542 16.9359 49.9004 14.5138 43.9995 14.514C38.0972 14.5141 32.4434 16.9362 28.0795 21.3343C27.3805 22.0387 27.3849 23.1764 28.0894 23.8754C28.7938 24.5744 29.9315 24.57 30.6305 23.8655C34.3145 20.1526 39.0624 18.1078 43.9995 18.1077C48.9353 18.1075 53.6832 20.1524 57.3686 23.8657C57.7199 24.2196 58.1818 24.3967 58.644 24.3967C59.1015 24.3967 59.5593 24.223 59.9099 23.8752C60.6142 23.1761 60.6185 22.0384 59.9194 21.3341Z" />
<path d="M52.7284 28.7762C50.3907 26.4601 47.0398 25.0214 43.9831 25.0214C43.9828 25.0214 43.9821 25.0214 43.9818 25.0214H43.8523C43.8518 25.0214 43.8515 25.0214 43.851 25.0214C40.7942 25.0214 37.443 26.4602 35.1054 28.7762C34.4005 29.4746 34.3952 30.6123 35.0936 31.3173C35.445 31.6719 35.9075 31.8495 36.3701 31.8495C36.8272 31.8495 37.2844 31.6762 37.6347 31.3292C39.2989 29.6804 41.7387 28.6152 43.8511 28.6152C43.8514 28.6152 43.8518 28.6152 43.852 28.6152H43.982C43.9824 28.6152 43.9825 28.6152 43.9829 28.6152C46.095 28.6152 48.5351 29.6805 50.199 31.3292C50.904 32.0275 52.0418 32.0225 52.7402 31.3173C53.4387 30.6124 53.4334 29.4746 52.7284 28.7762Z" />
</g>
<defs>
<clipPath id="clip0">
<rect width="46" height="46" transform="translate(21)"/>
</clipPath>
</defs>
</svg>
