<svg width="128" height="128" viewBox="-5 -5 40 32" fill="#000000" xmlns="http://www.w3.org/2000/svg">
<path d="M31.689 5.70967C30.7952 4.54838 29.2428 4.79032 29.2428 4.79032C29.2428 4.79032 28.5842 5.12903 28.7253 5.66128C28.8664 6.19354 28.443 6.29033 28.443 6.29033C28.443 6.29033 28.3019 6.43548 28.2078 6.19355C28.1608 6 25.5734 1.25806 25.2441 0.822572C24.9148 0.387088 24.9148 0.483871 24.9148 0.483871C24.9148 0.483871 19.4107 0 16.2587 0H15.7413C12.5893 0 7.08525 0.483871 7.08525 0.483871C7.08525 0.483871 7.08524 0.387088 6.75594 0.822572C6.42663 1.25806 3.83924 6 3.7922 6.19355C3.69811 6.43548 3.55698 6.29033 3.55698 6.29033C3.55698 6.29033 3.13359 6.19354 3.27472 5.66128C3.41585 5.12903 2.75724 4.79032 2.75724 4.79032C2.75724 4.79032 1.2048 4.54838 0.310972 5.70967C-0.582856 6.82258 0.734368 7.1129 0.734368 7.1129L3.3688 7.06451L1.25184 11.0806C1.25184 11.0806 1.15776 15.7742 1.25184 17.9032C1.29889 19.2581 1.86341 19.6936 2.2868 19.8387V23.4678C2.2868 23.7581 2.52202 24 2.80428 24H6.52072C6.80298 24 7.0382 23.7581 7.0382 23.4678V20.7581H24.9618V23.4678C24.9618 23.7581 25.197 24 25.4793 24H29.1957C29.478 24 29.7132 23.7581 29.7132 23.4678V19.8387C30.1366 19.6936 30.7011 19.2581 30.7482 17.9032C30.8422 15.7742 30.7482 11.0806 30.7482 11.0806L28.6312 7.06451L31.2656 7.1129C31.2656 7.1129 32.5829 6.82258 31.689 5.70967ZM4.8742 5.70967C5.2035 5.08064 6.80299 1.74192 6.80299 1.74192C6.80299 1.74192 7.08525 1.40322 7.64977 1.40322H14.2829H17.623H24.2562C24.8207 1.40322 25.1029 1.74192 25.1029 1.74192C25.1029 1.74192 26.7024 5.08064 27.0317 5.70967C27.314 6.38709 26.6083 6.38709 26.6083 6.43548C26.6083 6.43548 26.6083 6.43548 25.2441 6.38709C23.9268 6.3387 7.97907 6.3387 6.66185 6.38709C5.34463 6.38709 5.29759 6.43548 5.29759 6.43548C5.29759 6.38709 4.59194 6.38709 4.8742 5.70967ZM9.43743 13.2097C9.39038 13.4032 9.20221 13.5968 8.96699 13.6452C8.82586 13.6935 7.50864 13.6452 5.34463 13.6452C5.29759 13.6452 5.06238 13.6452 4.82716 13.5484C4.68603 13.5 4.49785 13.4032 4.40376 13.2581C4.35672 13.2097 4.35672 13.1613 4.26264 12.7258C4.16855 12.2903 4.16854 12.2419 4.16854 12.0968C4.16854 11.9516 4.16855 11.8548 4.21559 11.7097C4.35672 11.4194 4.78011 11.3226 4.8742 11.3226H7.60272C7.64977 11.3226 7.7909 11.3226 7.93203 11.371C8.59064 11.5161 8.96699 12.0968 9.10812 12.3387C9.29629 12.6774 9.53152 12.9194 9.43743 13.2097ZM20.1634 18.3387H11.8366C11.2721 18.3387 10.8017 17.7097 10.8017 17.129C10.8017 16.8387 10.8958 16.5 11.084 16.3064C11.2721 16.1129 11.5073 15.9194 11.7896 15.9194H20.2104C20.4927 15.9194 20.7279 16.1129 20.9161 16.3064C21.1042 16.5 21.1983 16.8387 21.1983 17.129C21.1983 17.7097 20.7279 18.3387 20.1634 18.3387ZM27.6903 12.7258C27.5962 13.1613 27.5962 13.2097 27.5492 13.2581C27.4551 13.4032 27.2669 13.5 27.1258 13.5484C26.8906 13.6452 26.6554 13.6452 26.6083 13.6452C24.4443 13.6452 23.1271 13.6935 22.986 13.6452C22.7508 13.5968 22.5626 13.4032 22.5155 13.2097C22.4214 12.9194 22.6567 12.6774 22.8448 12.3387C22.986 12.0968 23.3623 11.5161 24.0209 11.371C24.1621 11.3226 24.3032 11.3226 24.3502 11.3226H27.0788C27.1729 11.3226 27.5962 11.4194 27.7374 11.7097C27.7844 11.8548 27.7844 11.9516 27.7844 12.0968C27.7844 12.2419 27.7844 12.2903 27.6903 12.7258Z"/>
</svg>
