<svg width="128" height="128" viewBox="-4 -4 32 32" fill="#00000" xmlns="http://www.w3.org/2000/svg">
<path d="M12.0055 24C8.80121 24 5.78973 22.752 3.52447 20.4849C-0.178409 16.7811 -1.05829 11.1643 1.33633 6.51C1.55309 6.08914 2.06885 5.92371 2.49037 6.13971C2.9119 6.35571 3.07725 6.87257 2.86049 7.29429C0.807713 11.2834 1.56165 16.0971 4.73592 19.2729C6.67732 21.216 9.25872 22.2857 12.0055 22.2857C14.7514 22.2857 17.3336 21.216 19.275 19.2729C21.2164 17.3297 22.2865 14.7471 22.2865 12C22.2865 9.252 21.2173 6.66943 19.275 4.72714C17.3328 2.78486 14.7522 1.71429 12.0055 1.71429C9.25872 1.71429 6.67732 2.78486 4.73592 4.72714C4.40093 5.06229 3.85946 5.06229 3.52447 4.72714C3.18948 4.392 3.18948 3.85029 3.52447 3.51514C5.78973 1.24886 8.80121 0 12.0055 0C15.2097 0 18.2221 1.24886 20.4865 3.51514C22.7526 5.78143 24 8.79429 24 12C24 15.2049 22.7526 18.2186 20.4865 20.4849C18.2221 22.752 15.2097 24 12.0055 24Z" fill="#000000"/>
<path d="M16.2886 16.2857C16.101 16.2857 15.9125 16.2248 15.754 16.098L11.4702 12.6694C11.2672 12.5066 11.1489 12.2606 11.1489 12V5.14285C11.1489 4.66971 11.5328 4.28571 12.0057 4.28571C12.4786 4.28571 12.8624 4.66971 12.8624 5.14285V11.5886L16.8249 14.7591C17.1942 15.0557 17.2541 15.5948 16.9586 15.9643C16.7889 16.1751 16.5405 16.2857 16.2886 16.2857Z" fill="#000000"/>
</svg>
