<svg width="128" height="128" viewBox="-3 -3 28 28" fill="none" xmlns="http://www.w3.org/2000/svg">
<path d="M21.5 11C21.5 16.799 16.799 21.5 11 21.5C5.20101 21.5 0.5 16.799 0.5 11C0.5 5.20101 5.20101 0.5 11 0.5C16.799 0.5 21.5 5.20101 21.5 11Z" stroke="#000000"/>
<path d="M10.0863 13.1688C10.0962 12.6353 10.1628 12.2139 10.2861 11.9045C10.4094 11.5952 10.6609 11.2522 11.0407 10.8756L12.0099 9.96772C12.4242 9.54181 12.6313 9.08451 12.6313 8.59583C12.6313 8.12508 12.4957 7.75745 12.2244 7.49294C11.9531 7.22394 11.5586 7.08944 11.0407 7.08944C10.5376 7.08944 10.1332 7.21049 9.82737 7.45259C9.52158 7.69469 9.36868 8.01973 9.36868 8.42771H8C8.00986 7.70141 8.29346 7.11634 8.8508 6.67249C9.41307 6.22416 10.143 6 11.0407 6C11.9729 6 12.6979 6.22865 13.2158 6.68594C13.7386 7.13876 14 7.76194 14 8.55548C14 9.34006 13.6005 10.1134 12.8015 10.8756L11.9951 11.6019C11.635 11.965 11.455 12.4873 11.455 13.1688H10.0863ZM10.0271 15.3006C10.0271 15.0989 10.0937 14.9307 10.2269 14.7962C10.365 14.6573 10.5672 14.5878 10.8335 14.5878C11.0999 14.5878 11.3021 14.6573 11.4402 14.7962C11.5783 14.9307 11.6473 15.0989 11.6473 15.3006C11.6473 15.5024 11.5783 15.6705 11.4402 15.805C11.3021 15.935 11.0999 16 10.8335 16C10.5672 16 10.365 15.935 10.2269 15.805C10.0937 15.6705 10.0271 15.5024 10.0271 15.3006Z" fill="#000000"/>
</svg>
