<svg width="128" height="128" viewBox="-3 -2 22 18" fill="#000000" xmlns="http://www.w3.org/2000/svg">
<path d="M14.8093 2.37769H11.6838V1.61448C11.6838 0.733855 10.9536 0 10.0773 0H6.92268C6.04639 0 5.31615 0.733855 5.31615 1.61448V2.37769H2.19072C0.993127 2.37769 0 3.37573 0 4.57926V12.7984C0 14.002 0.993127 15 2.19072 15H14.8093C16.0069 15 17 14.002 17 12.7984V4.57926C17 3.37573 16.0069 2.37769 14.8093 2.37769ZM6.92268 0.880626H10.0773C10.4863 0.880626 10.8076 1.20352 10.8076 1.61448V2.37769H6.19244V1.61448C6.19244 1.23288 6.51375 0.880626 6.92268 0.880626ZM12.122 3.25832V14.1194H4.87801V3.25832H12.122ZM14.8093 14.1487H12.9983V3.28767H14.8093C15.5395 3.28767 16.1237 3.87476 16.1237 4.60861V12.8278C16.1237 13.5323 15.5395 14.1487 14.8093 14.1487ZM2.19072 3.25832H4.00172V14.1194H2.19072C1.46048 14.1194 0.876289 13.5323 0.876289 12.7984V4.57926C0.876289 3.8454 1.46048 3.25832 2.19072 3.25832Z" />
</svg>
