<svg width="128" height="128" viewBox="-4 -3 26 29" fill="#000000" xmlns="http://www.w3.org/2000/svg">
<path d="M8.99981 17.875C8.78035 17.875 8.57404 17.7719 8.44389 17.5972C8.21197 17.2872 2.76904 9.95294 2.76904 6.1875C2.76904 2.77612 5.56458 0 8.99981 0C12.4357 0 15.2306 2.77612 15.2306 6.1875C15.2306 9.95294 9.78766 17.2872 9.55573 17.5972C9.42558 17.7719 9.21927 17.875 8.99981 17.875ZM8.99981 1.375C6.3275 1.375 4.15366 3.53375 4.15366 6.1875C4.15366 8.64531 7.2642 13.5554 8.99981 16.0105C10.7354 13.5548 13.846 8.64325 13.846 6.1875C13.846 3.53375 11.6714 1.375 8.99981 1.375Z" />
<path d="M9.00019 8.9375C7.47296 8.9375 6.23096 7.70412 6.23096 6.1875C6.23096 4.67087 7.47296 3.4375 9.00019 3.4375C10.5274 3.4375 11.7694 4.67087 11.7694 6.1875C11.7694 7.70412 10.5274 8.9375 9.00019 8.9375ZM9.00019 4.8125C8.23657 4.8125 7.61557 5.42919 7.61557 6.1875C7.61557 6.94581 8.23657 7.5625 9.00019 7.5625C9.7638 7.5625 10.3848 6.94581 10.3848 6.1875C10.3848 5.42919 9.7638 4.8125 9.00019 4.8125Z" />
<path d="M9 21.9999C4.63708 21.9999 0 20.6579 0 18.1699C0 16.9358 1.16723 15.8674 3.28569 15.1607C3.64846 15.0417 4.041 15.2335 4.16215 15.5938C4.284 15.9534 4.08877 16.3439 3.72669 16.4649C1.998 17.0403 1.38462 17.7436 1.38462 18.1699C1.38462 19.1709 4.35115 20.6249 9 20.6249C13.6488 20.6249 16.6154 19.1709 16.6154 18.1699C16.6154 17.7436 16.0013 17.0403 14.2726 16.4642C13.9105 16.3425 13.7146 15.9534 13.8365 15.5931C13.959 15.2335 14.3515 15.0404 14.7136 15.16C16.8328 15.8674 18 16.9365 18 18.1699C18 20.6579 13.3629 21.9999 9 21.9999Z" />
</svg>
