<svg width="128" height="128" viewBox="-5.5 -3 30 30" fill="#000000" xmlns="http://www.w3.org/2000/svg">
<path d="M10 0C8.72878 0 7.63158 1.01137 7.63158 2.30029V7.10855L0.271382 11.0542C0.189146 11.0984 0.120606 11.1632 0.0728818 11.2419C0.025158 11.3205 -7.56684e-06 11.4102 1.70668e-09 11.5015V14.5685C0.000542694 14.6477 0.0199901 14.7256 0.0568111 14.7962C0.0936322 14.8667 0.146822 14.9281 0.212192 14.9753C0.277561 15.0225 0.353327 15.0544 0.433523 15.0683C0.513719 15.0823 0.596155 15.078 0.674342 15.0557L7.89474 12.9551V18.9295L5.97039 20.5668C5.91284 20.6154 5.86686 20.6756 5.83562 20.7432C5.80438 20.8108 5.78863 20.8842 5.78947 20.9582V22.4918C5.78991 22.5647 5.80642 22.6367 5.83789 22.703C5.86936 22.7692 5.91507 22.8281 5.97194 22.8758C6.0288 22.9235 6.09551 22.9588 6.16759 22.9793C6.23966 22.9999 6.31543 23.0052 6.3898 22.9949L10 22.4918L13.6102 22.9949C13.6846 23.0052 13.7603 22.9999 13.8324 22.9793C13.9045 22.9588 13.9712 22.9235 14.0281 22.8758C14.0849 22.8281 14.1306 22.7692 14.1621 22.703C14.1936 22.6367 14.2101 22.5647 14.2105 22.4918V20.9582C14.2114 20.8842 14.1956 20.8108 14.1644 20.7432C14.1331 20.6756 14.0872 20.6154 14.0296 20.5668L12.1053 18.9295V12.9551L19.3257 15.0557C19.4038 15.078 19.4863 15.0823 19.5665 15.0683C19.6467 15.0544 19.7224 15.0225 19.7878 14.9753C19.8532 14.9281 19.9064 14.8667 19.9432 14.7962C19.98 14.7256 19.9995 14.6477 20 14.5685V11.5015C20 11.4102 19.9748 11.3205 19.9271 11.2419C19.8794 11.1632 19.8109 11.0984 19.7286 11.0542L12.3684 7.10855V2.30029C12.3684 1.01136 11.2712 0 10 0ZM10 1.02235C10.6969 1.02235 11.3158 1.5755 11.3158 2.30029V7.41206C11.3158 7.50336 11.3409 7.59298 11.3887 7.67164C11.4364 7.7503 11.5049 7.81511 11.5872 7.85934L18.9474 11.805V13.8736L11.727 11.773C11.6481 11.7506 11.5649 11.7464 11.4841 11.7608C11.4033 11.7752 11.3271 11.8077 11.2615 11.8559C11.196 11.904 11.1429 11.9663 11.1067 12.0379C11.0704 12.1096 11.0519 12.1884 11.0526 12.2682V19.1691C11.053 19.2418 11.0693 19.3137 11.1005 19.3798C11.1317 19.4459 11.1771 19.5048 11.2336 19.5525L13.1579 21.1898V21.9007L10.074 21.4694C10.0249 21.4626 9.97508 21.4626 9.92599 21.4694L6.84211 21.9007V21.1898L8.76645 19.5525C8.82295 19.5048 8.86831 19.4459 8.89951 19.3798C8.93071 19.3137 8.94702 19.2418 8.94737 19.1691V12.2682C8.94811 12.1884 8.9296 12.1096 8.89333 12.0379C8.85705 11.9663 8.80402 11.904 8.73848 11.8559C8.67294 11.8077 8.5967 11.7752 8.51587 11.7608C8.43505 11.7464 8.35188 11.7506 8.27303 11.773L1.05263 13.8736V11.805L8.41283 7.85934C8.49506 7.81511 8.56361 7.7503 8.61133 7.67164C8.65905 7.59298 8.68422 7.50336 8.68421 7.41206V2.30029C8.68421 1.57549 9.30317 1.02235 10 1.02235Z" />
</svg>
