<svg width="128" height="128" viewBox="-27 -6 100 100" fill="#000000" xmlns="http://www.w3.org/2000/svg">
<path fill-rule="evenodd" clip-rule="evenodd" d="M29.1873 21.6113L24.0639 28.9058V15.5326C24.0639 15.0826 23.9233 14.6654 23.6364 14.3563C23.3468 14.0442 22.9443 13.882 22.5011 13.882C22.0579 13.882 21.6553 14.0442 21.3657 14.3563C21.0788 14.6654 20.9382 15.0826 20.9382 15.5326V35.4537L16.6305 30.8124C16.0078 30.1414 15.0362 30.1414 14.4135 30.8124C13.8077 31.465 13.8077 32.4546 14.4135 33.1073L20.7562 39.9412C20.7997 39.9881 20.8653 40.0589 20.9382 40.121V76.6986H16.0589C15.6157 76.6986 15.2131 76.8609 14.9235 77.1729C14.6366 77.4821 14.496 77.8993 14.496 78.3493C14.496 78.7993 14.6366 79.2166 14.9235 79.5257C15.2131 79.8377 15.6157 80 16.0589 80H28.9433C29.3865 80 29.789 79.8377 30.0786 79.5257C30.3655 79.2166 30.5061 78.7993 30.5061 78.3493C30.5061 77.8993 30.3655 77.4821 30.0786 77.1729C29.789 76.8609 29.3865 76.6986 28.9433 76.6986H24.0639V34.431L31.7042 23.5694L31.7056 23.5674C31.9546 23.2097 32.0168 22.7578 31.9647 22.3648C31.9127 21.9727 31.7352 21.5522 31.3963 21.2784L31.3762 21.2621L31.3544 21.248C30.6249 20.7764 29.6784 20.907 29.1873 21.6113Z" />
<path fill-rule="evenodd" clip-rule="evenodd" d="M44.9999 13.2115L45 13.2191L44.9999 34.9678C44.9999 42.2665 39.4419 48.3026 32.5927 48.3026C32.1495 48.3026 31.747 48.1403 31.4574 47.8283C31.1705 47.5192 31.0299 47.1019 31.0299 46.6519C31.0299 46.2019 31.1705 45.7847 31.4574 45.4756C31.747 45.1635 32.1495 45.0013 32.5927 45.0013C37.6616 45.0013 41.8743 40.51 41.8743 34.9678V13.2191C41.8743 7.67689 37.6616 3.18566 32.5927 3.18566H12.4072C7.33831 3.18566 3.12566 7.67689 3.12566 13.2191V35.0835C3.12566 40.6257 7.33831 45.1169 12.4072 45.1169C12.8504 45.1169 13.2529 45.2792 13.5425 45.5912C13.8295 45.9004 13.97 46.3176 13.97 46.7676C13.97 47.2176 13.8295 47.6349 13.5425 47.944C13.2529 48.256 12.8504 48.4183 12.4072 48.4183C5.55801 48.4183 0 42.3822 0 35.0835V13.3348C0 6.03606 5.55801 0 12.4072 0H32.5927C39.4428 0 44.8889 5.9199 44.9999 13.2115Z" />
</svg>
