<svg width="128" height="128" viewBox="-3 -2.5 24 24" fill="#000000" xmlns="http://www.w3.org/2000/svg">
<path d="M9.00015 9.68541C7.91213 9.68546 6.85429 9.33579 5.98983 8.69033C5.12538 8.04488 4.50233 7.13948 4.21675 6.11381C3.93118 5.08814 3.99898 3.99916 4.40966 3.01485C4.82034 2.03053 5.5511 1.20557 6.48923 0.667188C7.42737 0.128811 8.52073 -0.0930681 9.60073 0.0357757C10.6807 0.16462 11.6873 0.637027 12.4653 1.38013C13.2432 2.12324 13.7494 3.09577 13.9055 4.1477C14.0617 5.19964 13.8592 6.27255 13.3294 7.20095C13.297 7.2575 13.2534 7.30725 13.2013 7.34737C13.1492 7.38749 13.0895 7.41719 13.0256 7.43478C12.9618 7.45237 12.895 7.45749 12.8291 7.44986C12.7632 7.44224 12.6996 7.422 12.6417 7.39033C12.5838 7.35865 12.5329 7.31614 12.4918 7.26523C12.4508 7.21432 12.4204 7.15601 12.4024 7.09363C12.3844 7.03124 12.3791 6.966 12.3869 6.90163C12.3947 6.83727 12.4154 6.77503 12.4478 6.71848C12.8681 5.98006 13.0281 5.1271 12.9032 4.29107C12.7783 3.45505 12.3754 2.68236 11.7566 2.0921C11.1378 1.50185 10.3375 1.12679 9.47904 1.02475C8.62055 0.922703 7.75153 1.09933 7.00593 1.52741C6.26033 1.95548 5.67955 2.61125 5.35308 3.39362C5.02661 4.176 4.97257 5.04155 5.19933 5.85688C5.42608 6.67221 5.92105 7.39206 6.60789 7.90546C7.29473 8.41886 8.13532 8.69733 9.00015 8.69794C9.498 8.69935 9.99154 8.60751 10.454 8.4274C10.5789 8.3801 10.7178 8.38295 10.8406 8.43531C10.9634 8.48768 11.06 8.58532 11.1094 8.70695C11.1341 8.76704 11.1464 8.8313 11.1456 8.89605C11.1449 8.9608 11.131 9.02477 11.1048 9.08427C11.0787 9.14377 11.0407 9.19763 10.9932 9.24276C10.9456 9.28788 10.8894 9.32339 10.8278 9.34723C10.2461 9.57226 9.62582 9.68703 9.00015 9.68541Z" />
<path d="M17.4923 18.0001C17.4259 18.0001 17.3601 17.9872 17.2987 17.9622C17.2374 17.9372 17.1817 17.9006 17.135 17.8545C17.0882 17.8084 17.0512 17.7537 17.0262 17.6935C17.0012 17.6334 16.9886 17.569 16.9893 17.5041C16.9893 16.5301 16.6015 11.6784 9 11.6784C2.29385 11.6784 1.20462 15.4525 1.03846 17.0126H14.0584C14.1841 17.0243 14.3009 17.0814 14.3858 17.1727C14.4708 17.264 14.5178 17.383 14.5178 17.5063C14.5178 17.6297 14.4708 17.7486 14.3858 17.8399C14.3009 17.9312 14.1841 17.9883 14.0584 18.0001H0V17.5041C0 14.3478 2.35846 10.6865 9 10.6865C15.6415 10.6865 18 14.3613 18 17.5041C18 17.6356 17.9465 17.7618 17.8513 17.8548C17.7561 17.9478 17.627 18.0001 17.4923 18.0001Z" />
</svg>
