<svg xmlns="http://www.w3.org/2000/svg" width="24" height="24" viewBox="0 0 24 24">
  <g id="cancel-circle-outline" transform="translate(-8 -8)">
    <g id="Group_3" data-name="Group 3" transform="translate(8 8)">
      <path id="Path_3" data-name="Path 3" d="M15.757,14.757a1,1,0,0,0-.707,1.707L18.586,20,15.05,23.536a1,1,0,0,0,1.414,1.414L20,21.414l3.535,3.535a1,1,0,0,0,1.414-1.414L21.414,20l3.535-3.535a1,1,0,1,0-1.414-1.414L20,18.586l-3.536-3.535a1,1,0,0,0-.707-.293ZM20,10A10,10,0,1,1,10,20,10,10,0,0,1,20,10Zm0-2A12,12,0,1,0,32,20,12.006,12.006,0,0,0,20,8Z" transform="translate(-8 -8)" fill="#f36"/>
    </g>
  </g>
</svg>
