<svg xmlns="http://www.w3.org/2000/svg" width="24" height="24" viewBox="0 0 24 24">
  <g id="check-circle-outline" transform="translate(-8 -8)">
    <g id="Group_5" data-name="Group 5" transform="translate(8 8)">
      <path id="Path_5" data-name="Path 5" d="M24.5,14.5a.99.99,0,0,0-.8.412l-5.188,6.094-2.2-2.088a.99.99,0,0,0-.809-.423.977.977,0,0,0-.588.2,1.05,1.05,0,0,0-.22,1.439l3.8,5.371L25.3,16.147a1.05,1.05,0,0,0-.2-1.442.977.977,0,0,0-.6-.206ZM20,10A10,10,0,1,1,10,20,10,10,0,0,1,20,10Zm0-2A12,12,0,1,0,32,20,12.006,12.006,0,0,0,20,8Z" transform="translate(-8 -8)" fill="#23232d"/>
    </g>
  </g>
</svg>
