<svg xmlns="http://www.w3.org/2000/svg" width="24" height="24" viewBox="0 0 24 24">
  <g id="eyedropper" transform="translate(-10 -10)">
    <g id="Group_1" data-name="Group 1" transform="translate(10 10)">
      <path id="Path_1" data-name="Path 1" d="M30.376,10a1.086,1.086,0,0,0-.771.319l-5,5-.927-.927a1.089,1.089,0,0,0-1.542,0l-1.175,1.174a1.091,1.091,0,0,0,0,1.542L22.651,18.8l.006.006,2.533,2.533.006.006,1.692,1.692a1.092,1.092,0,0,0,1.542,0l1.174-1.175a1.09,1.09,0,0,0,0-1.542l-.927-.927,5-5a1.09,1.09,0,0,0,0-1.542l-2.533-2.534A1.087,1.087,0,0,0,30.376,10Zm-9.169,8.718L11.535,28.39a.958.958,0,0,0-.244.415L10,33.321l.679.679,4.559-1.238a.959.959,0,0,0,.431-.251l9.613-9.719-4.075-4.075Z" transform="translate(-10 -10)" fill="#f3ca3e"/>
    </g>
  </g>
</svg>
