<svg xmlns="http://www.w3.org/2000/svg" width="26.803" height="24" viewBox="0 0 26.803 24">
  <g id="home" transform="translate(0.001 -22.175)">
    <g id="Group_8" data-name="Group 8" transform="translate(-0.001 22.175)">
      <path id="Path_9" data-name="Path 9" d="M22.194,46.175H4.606a.514.514,0,0,1-.514-.514V36.084L.511,36.077A.514.514,0,0,1,.149,35.2L13.025,22.325a.522.522,0,0,1,.445-.144.514.514,0,0,1,.362.249l3,3v-.957a.514.514,0,0,1,.514-.514h3.018a.514.514,0,0,1,.514.514v5l5.776,5.776a.513.513,0,0,1-.363.877h0l-3.58-.007v9.542A.513.513,0,0,1,22.194,46.175ZM5.12,45.148h16.56V35.6a.514.514,0,0,1,.514-.514h0l2.851.006L20,30.049a.513.513,0,0,1-.151-.363v-4.7H17.858v1.684a.514.514,0,0,1-.877.363l-3.6-3.6L1.751,35.052l2.857.006a.513.513,0,0,1,.513.514S5.12,45.148,5.12,45.148Z" transform="translate(0.001 -22.175)" fill="#f3ca3e"/>
    </g>
  </g>
</svg>
