<svg xmlns="http://www.w3.org/2000/svg" width="511.99" height="511.944" viewBox="0 0 511.99 511.944">
  <g id="logout-svgrepo-com" transform="translate(-394 -110.023)">
    <g id="Group_11" data-name="Group 11" transform="translate(394 110)">
      <g id="Group_10" data-name="Group 10">
        <path id="Path_12" data-name="Path 12" d="M110.933,221.782a8.536,8.536,0,0,0-8.533,8.533v51.2a8.533,8.533,0,0,0,17.066,0v-51.2A8.535,8.535,0,0,0,110.933,221.782Z"/>
        <path id="Path_13" data-name="Path 13" d="M111.855,2.3,31.172,34.586C8.448,43,0,54.418,0,76.715V435.192c0,22.3,8.448,33.715,30.959,42.061l81.058,32.427A33.785,33.785,0,0,0,124,511.967c17.152,0,29.6-14.336,29.6-34.091V34.049C153.6,9.78,134.246-6.126,111.855,2.3Zm24.678,475.572c0,10.18-5.035,17.024-12.535,17.024a16.886,16.886,0,0,1-5.8-1.118L37.1,461.33c-16.1-5.965-20.036-11.1-20.036-26.138V76.715c0-15.036,3.934-20.164,20.241-26.206l80.725-32.29a16.983,16.983,0,0,1,5.956-1.186c7.5,0,12.544,6.835,12.544,17.016Z"/>
        <path id="Path_14" data-name="Path 14" d="M178.133,51.115H298.666a25.631,25.631,0,0,1,25.6,25.6v128a8.533,8.533,0,1,0,17.066,0v-128a42.716,42.716,0,0,0-42.667-42.667H178.133a8.534,8.534,0,0,0,0,17.067Z"/>
        <path id="Path_15" data-name="Path 15" d="M332.8,298.582a8.531,8.531,0,0,0-8.533,8.533v128a25.631,25.631,0,0,1-25.6,25.6H179.2a8.533,8.533,0,1,0,0,17.066H298.667a42.716,42.716,0,0,0,42.667-42.667v-128A8.532,8.532,0,0,0,332.8,298.582Z"/>
        <path id="Path_16" data-name="Path 16" d="M511.343,252.655a8.531,8.531,0,0,0-1.852-2.782L424.166,164.54A8.532,8.532,0,1,0,412.1,176.606l70.767,70.775h-286.6a8.533,8.533,0,1,0,0,17.066h286.6L412.1,335.215a8.532,8.532,0,1,0,12.066,12.066l85.325-85.325a8.557,8.557,0,0,0,1.852-9.3Z"/>
      </g>
    </g>
  </g>
</svg>
