<svg xmlns="http://www.w3.org/2000/svg" width="980.001" height="979.64" viewBox="0 0 980.001 979.64">
  <g id="fd4a76d522b9dd6a82cf00f2fa936641" transform="translate(-10.001 -10.182)">
    <g id="Group_13" data-name="Group 13" transform="translate(0 511)">
      <path id="Path_17" data-name="Path 17" d="M435.18-498.12C246.68-470.82,93.56-343.84,33.65-165.05,15.38-110.46,8.44-60.27,10.29,3.57c1.62,58.52,9.95,103.62,28.45,153.58,64.53,173.71,217.88,295.37,401.07,318.5,40.48,5.32,104.78,3.7,143.4-3.01C788.83,435.86,947.04,277.66,983.82,72.03c6.71-38.63,8.33-102.93,3.01-143.4-18.27-145.49-97.38-271.31-220.89-352.04-54.58-35.85-115.65-59.67-186.19-72.63C551.3-501.35,465.25-502.51,435.18-498.12Zm129.3,30.3a466.2,466.2,0,0,1,227.6,99.92c22.9,18.97,60.14,57.82,77.72,81.42,46.95,63.14,76.1,134.85,86.97,213.95,4.86,33.54,3.7,109.4-1.85,138.78-18.27,96.22-57.82,174.17-123.05,241.48-70.55,72.86-152.43,116.81-254.43,136-29.38,5.55-105.24,6.71-138.78,1.85-99.46-13.65-185.96-55.51-257.67-124.9C116.22,258,74.13,185.6,52.62,100.02c-17.58-69.62-17.58-152.89,0-222.51C81.99-239.76,155.78-340.37,259.86-404.9c49.5-30.76,112.64-53.66,174.17-62.91C463.4-472.44,533.95-472.44,564.48-467.82Z" fill="#f3ca3e"/>
      <path id="Path_18" data-name="Path 18" d="M467.56-282.78c-44.18,11.79-73.32,43.48-82.11,90.21-2.08,9.95-3.47,30.76-3.47,47.88,0,56.9,12.72,95.3,40.71,123.98,8.1,8.33,14.8,15.73,14.8,16.65S431.94,2.65,425,9.12C405.81,26.7,370.65,42.2,316.3,57c-11.1,3.01-16.19,6.25-26.83,16.88-19.43,19.66-21.97,28.45-21.97,79.1.23,52.5.46,53.66,27.06,66.61,37.24,18.27,77.02,30.53,125.59,39.09,33.31,5.78,124.44,5.78,158.67,0,65.69-11.1,141.79-39.32,149.65-55.74,4.4-8.79,7.4-59.91,4.86-80.49-2.54-21.97-13.65-43.95-26.83-54.12-5.78-4.4-19.43-10.64-34.69-15.5-27.99-9.02-51.81-19.66-75.4-34-17.81-10.64-24.29-10.87-30.76-.92-5.32,7.86-1.85,14.57,11.8,24.05,15.96,10.87,59.44,31.22,84.19,39.09,12.03,3.93,24.52,9.48,27.52,12.26,13.18,12.26,18.97,40.71,15.5,76.79l-1.62,18.04-19.2,9.02c-82.11,38.39-193.13,48.11-292.82,25.44-34.69-7.87-91.13-30.3-93.44-37.01-.69-2.08-1.39-16.89-1.39-32.61-.69-51.35,5.09-60.6,46.49-72.86,30.99-9.25,55.28-18.97,75.63-30.3,15.73-8.79,39.55-29.38,44.41-38.63,2.78-5.09,3.93-5.55,11.56-3.7,11.8,2.77,37.24,2.54,51.58-.46,41.86-8.79,71.47-40.48,85.58-91.6,6.94-25.21,7.63-96.22,1.16-117.27-13.65-44.18-40.02-70.55-81.42-81.19C514.06-287.4,484.45-287.17,467.56-282.78Zm71.94,33.77c24.98,11.56,40.71,33.77,46.26,65.23,3.47,20.58,1.39,74.25-3.47,92.29-8.56,31.23-24.75,53.43-46.49,64.07-9.95,4.86-15.03,5.55-35.85,5.78-21.97,0-25.44-.69-37.47-6.48-30.07-14.8-47.88-49.73-51.81-102.23-1.85-24.98,2.08-58.75,8.56-76.1,5.55-15.27,20.12-32.15,33.08-38.86,17.81-9.25,27.06-11.1,51.12-10.41C522.61-255.25,528.86-254.1,539.5-249.01Z" fill="#f3ca3e"/>
    </g>
  </g>
</svg>
