<svg width="29" height="20" viewBox="0 0 29 19" fill="none" xmlns="http://www.w3.org/2000/svg">
<path d="M2.1489 0H27.8329C28.475 0 29.0003 0.49827 29.0003 1.10727V17.7163C29.0003 18.3253 28.475 18.8235 27.8329 18.8235H2.1489C1.5068 18.8235 0.981445 18.3253 0.981445 17.7163V1.10727C0.981445 0.49827 1.5068 0 2.1489 0Z" fill="#2AA0D0"/>
<path fill-rule="evenodd" clip-rule="evenodd" d="M16.742 7.19724H20.2443C20.3902 7.19724 20.5362 7.33565 20.5362 7.47405V8.3045C20.5362 8.47059 20.4194 8.58132 20.2443 8.58132H18.2013V8.85814H20.1859C20.3611 8.85814 20.4778 8.96886 20.4778 9.13495V9.9654C20.4778 10.1315 20.3611 10.2422 20.1859 10.2422H18.2013V10.519H20.2443C20.4194 10.519 20.5362 10.6298 20.5362 10.7959V11.6263C20.5362 11.7924 20.4194 11.9031 20.2443 11.9031H16.742C16.596 11.9031 16.4501 11.7924 16.4501 11.654C16.4501 11.7924 16.3042 11.9031 16.1582 11.9031H14.9908C14.8157 11.9031 14.6989 11.7924 14.6989 11.6263V10.0208L13.9401 11.737C13.9109 11.8478 13.7941 11.9031 13.6774 11.9031H12.7726C12.6559 11.9031 12.5683 11.8478 12.5099 11.737L11.7803 10.0484V11.6263C11.7803 11.7924 11.6635 11.9031 11.4884 11.9031H9.15351C9.03677 11.9031 8.94921 11.8478 8.89084 11.737L8.48223 10.7959H6.87698L6.43919 11.737C6.41 11.8478 6.29325 11.9031 6.17651 11.9031H4.9215C4.83394 11.9031 4.74638 11.8478 4.68801 11.7647C4.62963 11.6817 4.62963 11.5709 4.65882 11.4879L6.67268 7.33565C6.73105 7.22492 6.81861 7.16956 6.93535 7.16956H8.48223C8.59897 7.16956 8.68653 7.22492 8.7449 7.33565L10.0291 10.0484V7.44637C10.0291 7.28028 10.1458 7.16956 10.321 7.16956H11.8387C11.9554 7.16956 12.043 7.2526 12.1013 7.33565L13.2688 9.57786L14.2027 7.36333C14.2319 7.2526 14.3487 7.19724 14.4654 7.19724H16.1582C16.3042 7.19724 16.4501 7.30796 16.4501 7.44637C16.4501 7.30796 16.596 7.19724 16.742 7.19724ZM7.69378 8.85812L7.43111 9.41176H7.95646L7.69378 8.85812Z" fill="#2AA0D0"/>
<path fill-rule="evenodd" clip-rule="evenodd" d="M23.9509 9.57789L25.1184 10.7682C25.1768 10.8236 25.2059 10.8789 25.2059 10.962V11.6263C25.2059 11.7094 25.1768 11.7647 25.1184 11.8201C25.06 11.8755 25.0016 11.9031 24.9141 11.9031H24.1552C24.0969 11.9031 24.0093 11.8755 23.9509 11.8201L22.8419 10.7128L21.7328 11.8201C21.6744 11.8755 21.616 11.9031 21.5285 11.9031H20.828C20.6529 11.9031 20.5361 11.7924 20.5361 11.6263V7.47408C20.5361 7.30799 20.6529 7.19727 20.828 7.19727H21.616C21.7036 7.19727 21.762 7.22495 21.8203 7.30799L22.871 8.44294L23.8926 7.28031C23.9509 7.22495 24.0385 7.19727 24.1261 7.19727H24.9141C25.0016 7.19727 25.06 7.22495 25.1184 7.28031C25.1768 7.33567 25.2059 7.39104 25.2059 7.47408V8.19381C25.2059 8.27685 25.1768 8.33221 25.1184 8.38758L23.9509 9.57789ZM21.1197 8.88572V10.2421L21.791 9.55008L21.1197 8.88572Z" fill="#2AA0D0"/>
<path d="M6.99316 9.68866H8.39411L7.69364 8.19385L6.99316 9.68866Z" fill="white"/>
<path d="M20.8281 10.962L22.1999 9.57793L20.8281 8.19385V10.962Z" fill="white"/>
<path fill-rule="evenodd" clip-rule="evenodd" d="M24.3601 9.57785L25.3524 10.5744C25.44 10.6851 25.4983 10.8235 25.4983 10.9619V11.6263C25.4983 11.7647 25.44 11.9031 25.3232 12.0138C25.2065 12.1246 25.0605 12.1799 24.9146 12.1799H24.2141C24.039 12.1799 23.8931 12.1246 23.7763 12.0138L22.8716 11.1003L21.9668 12.0138C21.85 12.1246 21.6749 12.1799 21.529 12.1799H20.8285C20.7118 12.1799 20.6242 12.1522 20.5367 12.0969C20.4491 12.1522 20.3615 12.1799 20.2448 12.1799H16.7424C16.6257 12.1799 16.5381 12.1522 16.4506 12.0969C16.363 12.1522 16.2754 12.1799 16.1587 12.1799H14.9913C14.6702 12.1799 14.4075 11.9308 14.4075 11.6263V11.4879L14.2324 11.9031C14.1157 12.0969 13.9114 12.2353 13.6779 12.2353H12.7731C12.5396 12.2353 12.3353 12.0969 12.2477 11.9031L12.0726 11.4879V11.6817C12.0726 11.9862 11.8099 12.2353 11.4889 12.2353H9.15399C8.89131 12.2353 8.68701 12.0969 8.59945 11.8754L8.2784 11.1003H7.05257L6.70234 11.8754C6.61478 12.0692 6.41047 12.2076 6.17698 12.2076H4.92197C4.71767 12.2076 4.54255 12.1246 4.4258 11.9585C4.33825 11.7924 4.30906 11.5986 4.39662 11.4325L6.41047 7.28027C6.49803 7.0865 6.70234 6.94809 6.93583 6.94809H8.4827C8.71619 6.94809 8.9205 7.0865 9.00806 7.28027L9.73771 8.80276V7.50173C9.73771 7.19723 10.0004 6.94809 10.3214 6.94809H11.8099C12.0434 6.94809 12.2477 7.05882 12.3353 7.25259L13.2109 8.94117L13.9114 7.28027C13.9989 7.05882 14.2324 6.92041 14.4659 6.92041H16.1587C16.2754 6.92041 16.363 6.94809 16.4506 7.00346C16.5381 6.94809 16.6257 6.92041 16.7424 6.92041H20.2448C20.3615 6.92041 20.4491 6.94809 20.5367 7.00346C20.6242 6.94809 20.7118 6.92041 20.8285 6.92041H21.6165C21.7917 6.92041 21.9376 7.00346 22.0543 7.11418L22.8716 7.99999L23.6888 7.11418C23.8055 6.97577 23.9515 6.92041 24.1266 6.92041H24.9146C25.0605 6.92041 25.2065 6.97577 25.3232 7.0865C25.44 7.19723 25.4983 7.33564 25.4983 7.47404V8.19377C25.4983 8.33217 25.44 8.47058 25.3524 8.58131L24.3601 9.57785ZM14.9913 11.6263H16.1587V7.47406H14.4659L13.2985 10.2699L11.8391 7.47406H10.3506V11.3495L8.5119 7.47406H6.96503L4.95117 11.6263H6.20618L6.70235 10.519H8.68702L9.154 11.6263H11.4889V8.63669L12.7731 11.6263H13.6779L14.9913 8.60901V11.6263ZM20.2448 8.30443H17.9099V9.13488H20.1864V9.96533H17.9099V10.7958H20.2448V11.6262H16.7424V7.47398H20.2448V8.30443ZM22.8715 10.2975L24.2141 11.6262H24.9146V10.9619L23.5428 9.57778L24.9146 8.1937V7.47398H24.1266L22.8715 8.85806L21.6165 7.47398H20.8285V11.6262H21.529L22.8715 10.2975Z" fill="white"/>
<path opacity="0.05" d="M2.1489 18.8235H2.67425L29.0003 1.60554V1.10727C29.0003 0.49827 28.475 0 27.8329 0H2.1489C1.5068 0 0.981445 0.49827 0.981445 1.10727V17.7163C0.981445 18.3253 1.5068 18.8235 2.1489 18.8235Z" fill="white"/>
</svg>
