<svg width="29" height="20" viewBox="0 0 27 18" fill="none" xmlns="http://www.w3.org/2000/svg">
<path d="M0.5 2C0.5 1.17157 1.17157 0.5 2 0.5H25C25.8284 0.5 26.5 1.17157 26.5 2V16C26.5 16.8284 25.8284 17.5 25 17.5H2C1.17157 17.5 0.5 16.8284 0.5 16V2Z" stroke="#788995"/>
<path fill-rule="evenodd" clip-rule="evenodd" d="M6 6C6 5.44772 6.44772 5 7 5H10C10.5523 5 11 5.44772 11 6V7C11 7.55228 10.5523 8 10 8H7C6.44772 8 6 7.55228 6 7V6Z" fill="#788995"/>
<path d="M6 12H21" stroke="#788995" stroke-linecap="square"/>
</svg>
