<svg width="29" height="20" viewBox="0 0 29 20" fill="none" xmlns="http://www.w3.org/2000/svg">
<path d="M1.16745 0H26.8514C27.4935 0 28.0189 0.49827 28.0189 1.10727V17.7163C28.0189 18.3253 27.4935 18.8235 26.8514 18.8235H1.16745C0.525354 18.8235 0 18.3253 0 17.7163V1.10727C0 0.49827 0.525354 0 1.16745 0Z" fill="#4361C3"/>
<path d="M17.3658 5.88232C19.7007 5.88232 21.5978 7.79409 21.5978 10.147C21.5978 12.5 19.7007 14.4117 17.3658 14.4117C15.0309 14.4117 13.1338 12.5 13.1338 10.147C13.1338 7.79409 15.0309 5.88232 17.3658 5.88232Z" fill="#FFAF38"/>
<path d="M13.7178 7.94116H16.6364V8.5294H13.7178V7.94116Z" fill="#FFAF38"/>
<path d="M10.6529 14.4117C8.31801 14.4117 6.4209 12.5 6.4209 10.147C6.4209 7.79409 8.31801 5.88232 10.6529 5.88232C12.9878 5.88232 14.8849 7.79409 14.8849 10.147C14.8849 12.5 12.9878 14.4117 10.6529 14.4117Z" fill="#EB3636"/>
<path fill-rule="evenodd" clip-rule="evenodd" d="M17.5113 7.94116H13.717V8.5294H17.5113V7.94116ZM13.717 11.4706V12.0588H17.5113V11.4706H13.717ZM17.219 9.70591H13.4248V9.11768H17.219V9.70591ZM13.4248 10.8824H17.219V10.2942H13.4248V10.8824Z" fill="#FFAF38"/>
<path opacity="0.05" d="M1.16745 20H1.69281L28.0189 1.70588V1.17647C28.0189 0.529412 27.4935 0 26.8514 0H1.16745C0.525354 0 0 0.529412 0 1.17647V18.8235C0 19.4706 0.525354 20 1.16745 20Z" fill="white"/>
</svg>
