<svg width="29" height="20" viewBox="0 0 29 19" fill="none" xmlns="http://www.w3.org/2000/svg">
<path d="M0.490234 4.98267H28.5091V13.8408H0.490234V4.98267Z" fill="#F9F9F9"/>
<path d="M1.65769 0H27.3416C27.9837 0 28.5091 0.49827 28.5091 1.10727V4.9827H0.490234V1.10727C0.490234 0.49827 1.01559 0 1.65769 0Z" fill="#09599E"/>
<path d="M0.490234 13.8409H28.5091V17.7164C28.5091 18.3254 27.9837 18.8236 27.3416 18.8236H1.65769C1.01559 18.8236 0.490234 18.3254 0.490234 17.7164V13.8409Z" fill="#E59703"/>
<path opacity="0.05" d="M1.65769 18.7958C1.01559 18.7958 0.490234 18.2976 0.490234 17.6886V1.10727C0.490234 0.49827 1.01559 0 1.65769 0H27.3416C27.9837 0 28.5091 0.49827 28.5091 1.10727" fill="white"/>
<path d="M11.3184 11.737L12.1648 7.05884H13.5073L12.6609 11.737H11.3184Z" fill="#00589F"/>
<path d="M17.5355 7.19719C17.2728 7.11414 16.8642 7.00342 16.3389 7.00342C14.9963 7.00342 14.0624 7.6401 14.0624 8.55359C14.0624 9.21795 14.7336 9.60549 15.2298 9.82695C15.7552 10.0484 15.9303 10.2145 15.9303 10.4083C15.9303 10.7128 15.5217 10.8789 15.1131 10.8789C14.5877 10.8789 14.2958 10.7958 13.858 10.6297L13.6829 10.519L13.5078 11.5709C13.8289 11.7093 14.4126 11.82 14.9963 11.82C16.3973 11.82 17.3312 11.1833 17.3312 10.2145C17.3312 9.68854 16.981 9.27331 16.193 8.94113C15.726 8.71968 15.4341 8.58127 15.4341 8.35982C15.4341 8.16605 15.6676 7.94459 16.193 7.94459C16.6307 7.94459 16.9518 8.02764 17.1853 8.11068L17.302 8.16605L17.5355 7.19719Z" fill="#00589F"/>
<path fill-rule="evenodd" clip-rule="evenodd" d="M19.9283 7.08643H20.979L22.0881 11.7646H20.8331C20.8331 11.7646 20.6872 11.2387 20.658 11.0726H18.936C18.8776 11.1833 18.6441 11.7646 18.6441 11.7646H17.2432L19.2278 7.47397C19.3738 7.16947 19.6073 7.08643 19.9283 7.08643ZM19.8411 8.77496C19.8411 8.77496 19.4325 9.79918 19.3158 10.076V10.1037H20.4248C20.3665 9.85455 20.1038 8.74728 20.1038 8.74728L20.0162 8.33205C19.9579 8.49814 19.8411 8.77496 19.8411 8.77496Z" fill="#00589F"/>
<path d="M10.1808 7.08652L8.86737 10.2699L8.72144 9.63323C8.48795 8.88583 7.69992 8.08306 6.85352 7.66783L8.07934 11.737H9.50947L11.6401 7.05884H10.1808" fill="#00589F"/>
<path d="M7.64112 7.05884H5.48133L5.45215 7.16956C7.14496 7.55711 8.25404 8.49828 8.72102 9.60555L8.25404 7.47406C8.19566 7.16956 7.93299 7.08652 7.64112 7.05884Z" fill="#F9A51A"/>
</svg>
