<svg xmlns="http://www.w3.org/2000/svg" width="420" height="403.846" viewBox="0 0 420 403.846">
  <path id="logo" d="M256,151l129.23-48.461,16.154-16.154S352.922,54.077,256,54.077,110.615,86.385,110.615,86.385l16.154,16.154Zm0-59.829c34.1,0,45.47,7.578,45.47,7.578L256,113.907,210.53,98.749S221.9,91.171,256,91.171ZM223.692,361V199.462l-13.539-54.151L256,162.5l45.847-17.191-13.539,54.151V361ZM126.77,280.23l32.308,32.308V425.615l-48.462-48.461L78.308,231.77l48.462,19.386V280.23ZM416.613,86.385,391.2,111.8l-77.1,28.911-15.016,60.073v47.136h53.846l80.77-32.308L466,86.385ZM403.8,185.4l-83.182,29.514,10.541-16.153,86.382-31.606Zm0-32.307-83.182,29.514,10.541-16.153,86.382-31.607ZM212.923,200.787,197.9,140.714,120.8,111.8,95.387,86.385H46l32.308,129.23,80.77,32.308h53.846V200.787ZM108.2,185.4,94.462,167.154l86.381,31.606,10.542,16.153Zm0-32.307L94.462,134.846l86.381,31.607,10.542,16.153ZM385.23,251.155l48.462-19.386L401.384,377.154l-48.462,48.461V312.538L385.23,280.23V251.155ZM288.308,409.462l16.154,48.461H207.538l16.154-48.461Zm10.769-123.847,37.692,18.847V441.77l-22.576,11.288-18.124-54.365H215.93l-18.122,54.365L175.23,441.77V304.462l37.692-18.847v86.154h86.154V285.615Z" transform="translate(-46 -54.077)" fill="#ffca00"/>
</svg>
