<?xml version="1.0" encoding="utf-8"?>
<svg version="1.1" xmlns="http://www.w3.org/2000/svg" xmlns:xlink="http://www.w3.org/1999/xlink" height="70" width="56">
  <defs>
    <path id="path-1" opacity="1" fill-rule="evenodd" d="M53.67500000000003,9.976821192052984 C47.93333333333336,4.403973509933776 40.02500000000003,2 28.000000000000014,2 C15.975000000000007,2 8.06666666666667,4.403973509933776 2.325000000000001,9.976821192052984 L2,10.304635761589406 L2,32.814569536423846 L2,34.78145695364239 C2,49.75165562913909 12.291666666666671,63.082781456953654 27.67500000000001,67.8907284768212 L28.000000000000014,68.00000000000001 L28.325000000000014,67.8907284768212 C43.70833333333336,63.082781456953654 54.00000000000003,49.75165562913909 54.00000000000003,34.78145695364239 L54.00000000000003,10.304635761589406 L53.67500000000003,9.976821192052984Z"/>
    <path id="path-2" opacity="1" fill-rule="evenodd" d="M34.144210526315206,28.304999999999954 L34.144210526315206,20.828507178773478 C34.144210526315206,20.37040646498402 33.776079272155116,20 33.32196635662109,20 L24.026905823829203,20 C23.571768137855628,20 23.204661654135087,20.370935298837065 23.204661654135087,20.828507178773478 L23.204661654135087,28.30499999999995 L15.81849742081378,28.30499999999995 C15.365931332895618,28.30499999999995 15,28.67763329003436 15,29.137299748261714 L15,38.546033585071456 C15,39.00673734609802 15.36645377754769,39.37833333333322 15.818497420813776,39.37833333333322 L23.204661654135087,39.37833333333322 L23.204661654135087,46.85482615455969 C23.204661654135087,47.31292686834915 23.572792908295177,47.68333333333317 24.026905823829203,47.68333333333317 L33.32196635662109,47.68333333333317 C33.777104042594665,47.68333333333317 34.144210526315206,47.312398034496105 34.144210526315206,46.85482615455969 L34.144210526315206,39.37833333333322 L41.530374759636516,39.378333333333224 C41.98294084755467,39.378333333333224 42.34887218045029,39.00570004329881 42.34887218045029,38.546033585071456 L42.34887218045029,29.137299748261718 C42.34887218045029,28.676595987235146 41.982418402902596,28.304999999999954 41.530374759636516,28.304999999999954 L34.144210526315206,28.304999999999954Z"/>
  </defs>
  <g opacity="1">
    <g opacity="1">
      <use xlink:href="#path-1" fill="rgb(200,214,229)" fill-opacity="0"/>
      <use xlink:href="#path-1" fill-opacity="0" stroke="rgb(255,202,0)" stroke-opacity="1" stroke-width="4" stroke-linecap="round" stroke-linejoin="round"/>
    </g>
    <g opacity="1">
      <use xlink:href="#path-2" fill="rgb(42,201,64)" fill-opacity="1"/>
      <use xlink:href="#path-2" fill-opacity="0" stroke="rgb(42,201,64)" stroke-opacity="1" stroke-width="4" stroke-linecap="round" stroke-linejoin="round"/>
    </g>
  </g>
</svg>