<svg xmlns="http://www.w3.org/2000/svg" width="420" height="403.846" viewBox="0 0 420 403.846">
  <path id="iconfinder_Decepticon_367623" d="M401.385,118.692l-68.068,7.563-9.38,46.9,74.09-21.451-13.742,18.249-63.72,20.065-3.486,17.43,80.948-23.437-13.742,18.249-76.508,24.094L256,260.866l-51.776-34.517-76.508-24.094-13.742-18.249,80.948,23.437-3.486-17.43-63.72-20.065L113.974,151.7l74.09,21.451-9.38-46.9-68.068-7.563L46,54.077,94.462,280.23,256,457.923,417.538,280.23,466,54.077ZM159.077,280.23l-16.154-32.308,80.77,32.308,16.153,48.462Zm193.846,0-80.769,48.462,16.153-48.462,80.77-32.308ZM256,247.923l48.462-32.308L336.77,54.077l-48.462,48.461H223.693L175.23,54.077l32.308,161.538Zm16.154-113.077L256,183.308l-16.154-48.461h32.308ZM94.462,296.385,239.846,457.923,126.77,409.462ZM272.154,457.923,417.538,296.385,385.23,409.462Z" transform="translate(-46 -54.077)"/>
</svg>
